<mxfile host="65bd71144e">
    <diagram id="vKRGH-BgYqqDtNtD9rf6" name="Page-1">
        <mxGraphModel dx="1061" dy="779" grid="1" gridSize="10" guides="1" tooltips="1" connect="1" arrows="1" fold="1" page="1" pageScale="1" pageWidth="850" pageHeight="1100" math="0" shadow="0">
            <root>
                <mxCell id="0"/>
                <mxCell id="1" parent="0"/>
                <mxCell id="5" style="edgeStyle=orthogonalEdgeStyle;html=1;entryX=0;entryY=0.5;entryDx=0;entryDy=0;exitX=0.5;exitY=1;exitDx=0;exitDy=0;endArrow=none;endFill=0;rounded=0;fontSize=24;strokeWidth=2;fontColor=#333333;strokeColor=#333333;" parent="1" source="2" target="3" edge="1">
                    <mxGeometry relative="1" as="geometry"/>
                </mxCell>
                <mxCell id="22" style="edgeStyle=orthogonalEdgeStyle;rounded=0;html=1;entryX=0;entryY=0.5;entryDx=0;entryDy=0;endArrow=none;endFill=0;exitX=0.5;exitY=1;exitDx=0;exitDy=0;fontSize=24;strokeWidth=2;fontColor=#333333;strokeColor=#333333;" parent="1" source="2" target="6" edge="1">
                    <mxGeometry relative="1" as="geometry"/>
                </mxCell>
                <mxCell id="23" style="edgeStyle=orthogonalEdgeStyle;rounded=0;html=1;entryX=0;entryY=0.5;entryDx=0;entryDy=0;endArrow=none;endFill=0;exitX=0.5;exitY=1;exitDx=0;exitDy=0;fontSize=24;strokeWidth=2;fontColor=#333333;strokeColor=#333333;" parent="1" source="2" target="7" edge="1">
                    <mxGeometry relative="1" as="geometry"/>
                </mxCell>
                <mxCell id="24" style="edgeStyle=orthogonalEdgeStyle;rounded=0;html=1;entryX=0;entryY=0.5;entryDx=0;entryDy=0;endArrow=none;endFill=0;exitX=0.5;exitY=1;exitDx=0;exitDy=0;fontSize=24;strokeWidth=2;fontColor=#333333;strokeColor=#333333;" parent="1" source="2" target="8" edge="1">
                    <mxGeometry relative="1" as="geometry"/>
                </mxCell>
                <mxCell id="25" style="edgeStyle=orthogonalEdgeStyle;rounded=0;html=1;entryX=0;entryY=0.5;entryDx=0;entryDy=0;endArrow=none;endFill=0;exitX=0.5;exitY=1;exitDx=0;exitDy=0;fontSize=24;strokeWidth=2;fontColor=#333333;strokeColor=#333333;" parent="1" source="2" target="9" edge="1">
                    <mxGeometry relative="1" as="geometry"/>
                </mxCell>
                <mxCell id="26" style="edgeStyle=orthogonalEdgeStyle;rounded=0;html=1;entryX=0;entryY=0.5;entryDx=0;entryDy=0;endArrow=none;endFill=0;exitX=0.5;exitY=1;exitDx=0;exitDy=0;fontSize=24;strokeWidth=2;fontColor=#333333;strokeColor=#333333;" parent="1" source="2" target="10" edge="1">
                    <mxGeometry relative="1" as="geometry"/>
                </mxCell>
                <mxCell id="27" style="edgeStyle=orthogonalEdgeStyle;rounded=0;html=1;entryX=0;entryY=0.5;entryDx=0;entryDy=0;endArrow=none;endFill=0;exitX=0.5;exitY=1;exitDx=0;exitDy=0;fontSize=24;strokeWidth=2;fontColor=#333333;strokeColor=#333333;" parent="1" source="2" target="11" edge="1">
                    <mxGeometry relative="1" as="geometry"/>
                </mxCell>
                <mxCell id="32" style="edgeStyle=orthogonalEdgeStyle;rounded=0;html=1;entryX=0;entryY=0.5;entryDx=0;entryDy=0;endArrow=none;endFill=0;exitX=0.5;exitY=1;exitDx=0;exitDy=0;fontSize=24;strokeWidth=2;fontColor=#333333;strokeColor=#333333;" parent="1" source="2" target="21" edge="1">
                    <mxGeometry relative="1" as="geometry"/>
                </mxCell>
                <mxCell id="33" style="edgeStyle=orthogonalEdgeStyle;rounded=0;html=1;entryX=0;entryY=0.5;entryDx=0;entryDy=0;endArrow=none;endFill=0;exitX=0.5;exitY=1;exitDx=0;exitDy=0;fontSize=24;strokeWidth=2;fontColor=#333333;strokeColor=#333333;" parent="1" source="2" target="28" edge="1">
                    <mxGeometry relative="1" as="geometry"/>
                </mxCell>
                <mxCell id="34" style="edgeStyle=orthogonalEdgeStyle;rounded=0;html=1;entryX=0;entryY=0.5;entryDx=0;entryDy=0;endArrow=none;endFill=0;exitX=0.5;exitY=1;exitDx=0;exitDy=0;fontSize=24;strokeWidth=2;fontColor=#333333;strokeColor=#333333;" parent="1" source="2" target="29" edge="1">
                    <mxGeometry relative="1" as="geometry"/>
                </mxCell>
                <mxCell id="35" style="edgeStyle=orthogonalEdgeStyle;rounded=0;html=1;entryX=0;entryY=0.5;entryDx=0;entryDy=0;endArrow=none;endFill=0;exitX=0.5;exitY=1;exitDx=0;exitDy=0;fontSize=24;strokeWidth=2;fontColor=#333333;strokeColor=#333333;" parent="1" source="2" target="30" edge="1">
                    <mxGeometry relative="1" as="geometry"/>
                </mxCell>
                <mxCell id="36" style="edgeStyle=orthogonalEdgeStyle;rounded=0;html=1;entryX=0;entryY=0.5;entryDx=0;entryDy=0;endArrow=none;endFill=0;exitX=0.5;exitY=1;exitDx=0;exitDy=0;fontSize=24;strokeWidth=2;fontColor=#333333;strokeColor=#333333;" parent="1" source="2" target="31" edge="1">
                    <mxGeometry relative="1" as="geometry"/>
                </mxCell>
                <mxCell id="2" value="div#AboutView" style="text;html=1;strokeColor=none;fillColor=none;align=left;verticalAlign=middle;whiteSpace=wrap;rounded=0;fontSize=24;strokeWidth=2;fontColor=#333333;" parent="1" vertex="1">
                    <mxGeometry x="100" y="40" width="20" height="30" as="geometry"/>
                </mxCell>
                <mxCell id="3" value="a" style="text;html=1;strokeColor=none;fillColor=none;align=left;verticalAlign=middle;whiteSpace=wrap;rounded=0;fontSize=24;strokeWidth=2;fontColor=#333333;" parent="1" vertex="1">
                    <mxGeometry x="140" y="73" width="40" height="20" as="geometry"/>
                </mxCell>
                <mxCell id="6" value="p" style="text;html=1;strokeColor=none;fillColor=none;align=left;verticalAlign=middle;whiteSpace=wrap;rounded=0;fontSize=24;strokeWidth=2;fontColor=#333333;" parent="1" vertex="1">
                    <mxGeometry x="140" y="101" width="40" height="20" as="geometry"/>
                </mxCell>
                <mxCell id="7" value="NotInstagramLogo" style="text;html=1;strokeColor=none;fillColor=none;align=left;verticalAlign=middle;whiteSpace=wrap;rounded=0;fontSize=24;strokeWidth=2;fontColor=#333333;" parent="1" vertex="1">
                    <mxGeometry x="140" y="129" width="40" height="20" as="geometry"/>
                </mxCell>
                <mxCell id="8" value="img" style="text;html=1;strokeColor=none;fillColor=none;align=left;verticalAlign=middle;whiteSpace=wrap;rounded=0;fontSize=24;strokeWidth=2;fontColor=#333333;" parent="1" vertex="1">
                    <mxGeometry x="140" y="156" width="40" height="20" as="geometry"/>
                </mxCell>
                <mxCell id="9" value="p" style="text;html=1;strokeColor=none;fillColor=none;align=left;verticalAlign=middle;whiteSpace=wrap;rounded=0;fontSize=24;strokeWidth=2;fontColor=#333333;" parent="1" vertex="1">
                    <mxGeometry x="140" y="184" width="40" height="20" as="geometry"/>
                </mxCell>
                <mxCell id="10" value="p" style="text;html=1;strokeColor=none;fillColor=none;align=left;verticalAlign=middle;whiteSpace=wrap;rounded=0;fontSize=24;strokeWidth=2;fontColor=#333333;" parent="1" vertex="1">
                    <mxGeometry x="140" y="212" width="40" height="20" as="geometry"/>
                </mxCell>
                <mxCell id="39" style="edgeStyle=orthogonalEdgeStyle;rounded=0;html=1;entryX=0;entryY=0.5;entryDx=0;entryDy=0;endArrow=none;endFill=0;fontSize=24;strokeWidth=2;fontColor=#333333;strokeColor=#333333;" parent="1" source="11" target="12" edge="1">
                    <mxGeometry relative="1" as="geometry"/>
                </mxCell>
                <mxCell id="40" style="edgeStyle=orthogonalEdgeStyle;rounded=0;html=1;entryX=0;entryY=0.5;entryDx=0;entryDy=0;endArrow=none;endFill=0;fontSize=24;strokeWidth=2;fontColor=#333333;strokeColor=#333333;" parent="1" source="11" target="15" edge="1">
                    <mxGeometry relative="1" as="geometry"/>
                </mxCell>
                <mxCell id="41" style="edgeStyle=orthogonalEdgeStyle;rounded=0;html=1;entryX=0;entryY=0.5;entryDx=0;entryDy=0;endArrow=none;endFill=0;fontSize=24;strokeWidth=2;fontColor=#333333;strokeColor=#333333;" parent="1" source="11" target="19" edge="1">
                    <mxGeometry relative="1" as="geometry"/>
                </mxCell>
                <mxCell id="11" value="div" style="text;html=1;strokeColor=none;fillColor=none;align=left;verticalAlign=middle;whiteSpace=wrap;rounded=0;fontSize=24;strokeWidth=2;fontColor=#333333;" parent="1" vertex="1">
                    <mxGeometry x="140" y="240" width="20" height="20" as="geometry"/>
                </mxCell>
                <mxCell id="42" style="edgeStyle=orthogonalEdgeStyle;rounded=0;html=1;entryX=0;entryY=0.5;entryDx=0;entryDy=0;endArrow=none;endFill=0;exitX=0.5;exitY=1;exitDx=0;exitDy=0;fontSize=24;strokeWidth=2;fontColor=#333333;strokeColor=#333333;" parent="1" source="12" target="13" edge="1">
                    <mxGeometry relative="1" as="geometry"/>
                </mxCell>
                <mxCell id="12" value="p" style="text;html=1;strokeColor=none;fillColor=none;align=left;verticalAlign=middle;whiteSpace=wrap;rounded=0;fontSize=24;strokeWidth=2;fontColor=#333333;" parent="1" vertex="1">
                    <mxGeometry x="160" y="262" width="10" height="31" as="geometry"/>
                </mxCell>
                <mxCell id="43" style="edgeStyle=orthogonalEdgeStyle;rounded=0;html=1;entryX=0;entryY=0.5;entryDx=0;entryDy=0;endArrow=none;endFill=0;exitX=0.5;exitY=1;exitDx=0;exitDy=0;fontSize=24;strokeWidth=2;fontColor=#333333;strokeColor=#333333;" parent="1" source="13" target="14" edge="1">
                    <mxGeometry relative="1" as="geometry"/>
                </mxCell>
                <mxCell id="13" value="a" style="text;html=1;strokeColor=none;fillColor=none;align=left;verticalAlign=middle;whiteSpace=wrap;rounded=0;fontSize=24;strokeWidth=2;fontColor=#333333;" parent="1" vertex="1">
                    <mxGeometry x="180" y="310" width="10" height="20" as="geometry"/>
                </mxCell>
                <mxCell id="14" value="img" style="text;html=1;strokeColor=none;fillColor=none;align=left;verticalAlign=middle;whiteSpace=wrap;rounded=0;fontSize=24;strokeWidth=2;fontColor=#333333;" parent="1" vertex="1">
                    <mxGeometry x="200" y="340" width="40" height="20" as="geometry"/>
                </mxCell>
                <mxCell id="44" style="edgeStyle=orthogonalEdgeStyle;rounded=0;html=1;entryX=0;entryY=0.5;entryDx=0;entryDy=0;endArrow=none;endFill=0;exitX=0.5;exitY=1;exitDx=0;exitDy=0;fontSize=24;strokeWidth=2;fontColor=#333333;strokeColor=#333333;" parent="1" source="15" target="16" edge="1">
                    <mxGeometry relative="1" as="geometry"/>
                </mxCell>
                <mxCell id="15" value="p" style="text;html=1;strokeColor=none;fillColor=none;align=left;verticalAlign=middle;whiteSpace=wrap;rounded=0;fontSize=24;strokeWidth=2;fontColor=#333333;" parent="1" vertex="1">
                    <mxGeometry x="160" y="350" width="10" height="35" as="geometry"/>
                </mxCell>
                <mxCell id="45" style="edgeStyle=orthogonalEdgeStyle;rounded=0;html=1;entryX=0;entryY=0.5;entryDx=0;entryDy=0;endArrow=none;endFill=0;exitX=0.5;exitY=1;exitDx=0;exitDy=0;fontSize=24;strokeWidth=2;fontColor=#333333;strokeColor=#333333;" parent="1" source="16" target="17" edge="1">
                    <mxGeometry relative="1" as="geometry"/>
                </mxCell>
                <mxCell id="16" value="a" style="text;html=1;strokeColor=none;fillColor=none;align=left;verticalAlign=middle;whiteSpace=wrap;rounded=0;fontSize=24;strokeWidth=2;fontColor=#333333;" parent="1" vertex="1">
                    <mxGeometry x="180" y="389" width="10" height="20" as="geometry"/>
                </mxCell>
                <mxCell id="17" value="img" style="text;html=1;strokeColor=none;fillColor=none;align=left;verticalAlign=middle;whiteSpace=wrap;rounded=0;fontSize=24;strokeWidth=2;fontColor=#333333;" parent="1" vertex="1">
                    <mxGeometry x="200" y="417" width="40" height="20" as="geometry"/>
                </mxCell>
                <mxCell id="47" style="edgeStyle=orthogonalEdgeStyle;rounded=0;html=1;entryX=0;entryY=0.5;entryDx=0;entryDy=0;endArrow=none;endFill=0;exitX=0.5;exitY=1;exitDx=0;exitDy=0;fontSize=24;strokeWidth=2;fontColor=#333333;strokeColor=#333333;" parent="1" source="18" target="20" edge="1">
                    <mxGeometry relative="1" as="geometry"/>
                </mxCell>
                <mxCell id="18" value="a" style="text;html=1;strokeColor=none;fillColor=none;align=left;verticalAlign=middle;whiteSpace=wrap;rounded=0;fontSize=24;strokeWidth=2;fontColor=#333333;" parent="1" vertex="1">
                    <mxGeometry x="180" y="463" width="10" height="20" as="geometry"/>
                </mxCell>
                <mxCell id="46" style="edgeStyle=orthogonalEdgeStyle;rounded=0;html=1;entryX=0;entryY=0.5;entryDx=0;entryDy=0;endArrow=none;endFill=0;exitX=0.5;exitY=1;exitDx=0;exitDy=0;fontSize=24;strokeWidth=2;fontColor=#333333;strokeColor=#333333;" parent="1" source="19" target="18" edge="1">
                    <mxGeometry relative="1" as="geometry"/>
                </mxCell>
                <mxCell id="19" value="p" style="text;html=1;strokeColor=none;fillColor=none;align=left;verticalAlign=middle;whiteSpace=wrap;rounded=0;fontSize=24;strokeWidth=2;fontColor=#333333;" parent="1" vertex="1">
                    <mxGeometry x="160" y="427" width="10" height="32" as="geometry"/>
                </mxCell>
                <mxCell id="20" value="SendIcon" style="text;html=1;strokeColor=none;fillColor=none;align=left;verticalAlign=middle;whiteSpace=wrap;rounded=0;fontSize=24;strokeWidth=2;fontColor=#333333;" parent="1" vertex="1">
                    <mxGeometry x="200" y="491" width="40" height="20" as="geometry"/>
                </mxCell>
                <mxCell id="21" value="InfoBlock" style="text;html=1;strokeColor=none;fillColor=none;align=left;verticalAlign=middle;whiteSpace=wrap;rounded=0;fontSize=24;strokeWidth=2;fontColor=#333333;" parent="1" vertex="1">
                    <mxGeometry x="140" y="519" width="40" height="20" as="geometry"/>
                </mxCell>
                <mxCell id="28" value="InfoBlock" style="text;html=1;strokeColor=none;fillColor=none;align=left;verticalAlign=middle;whiteSpace=wrap;rounded=0;fontSize=24;strokeWidth=2;fontColor=#333333;" parent="1" vertex="1">
                    <mxGeometry x="140" y="546" width="40" height="20" as="geometry"/>
                </mxCell>
                <mxCell id="29" value="InfoBlock" style="text;html=1;strokeColor=none;fillColor=none;align=left;verticalAlign=middle;whiteSpace=wrap;rounded=0;fontSize=24;strokeWidth=2;fontColor=#333333;" parent="1" vertex="1">
                    <mxGeometry x="140" y="574" width="40" height="20" as="geometry"/>
                </mxCell>
                <mxCell id="30" value="InfoBlock" style="text;html=1;strokeColor=none;fillColor=none;align=left;verticalAlign=middle;whiteSpace=wrap;rounded=0;fontSize=24;strokeWidth=2;fontColor=#333333;" parent="1" vertex="1">
                    <mxGeometry x="140" y="602" width="40" height="20" as="geometry"/>
                </mxCell>
                <mxCell id="31" value="InfoBlock" style="text;html=1;strokeColor=none;fillColor=none;align=left;verticalAlign=middle;whiteSpace=wrap;rounded=0;fontSize=24;strokeWidth=2;fontColor=#333333;" parent="1" vertex="1">
                    <mxGeometry x="140" y="630" width="40" height="20" as="geometry"/>
                </mxCell>
                <mxCell id="51" style="edgeStyle=orthogonalEdgeStyle;rounded=0;html=1;entryX=0;entryY=0.5;entryDx=0;entryDy=0;endArrow=none;endFill=0;exitX=0.5;exitY=1;exitDx=0;exitDy=0;fontSize=24;strokeWidth=2;fontColor=#333333;strokeColor=#333333;" parent="1" source="48" target="49" edge="1">
                    <mxGeometry relative="1" as="geometry"/>
                </mxCell>
                <mxCell id="52" style="edgeStyle=orthogonalEdgeStyle;rounded=0;html=1;entryX=0;entryY=0.5;entryDx=0;entryDy=0;endArrow=none;endFill=0;fontSize=24;strokeWidth=2;fontColor=#333333;strokeColor=#333333;" parent="1" source="48" target="50" edge="1">
                    <mxGeometry relative="1" as="geometry"/>
                </mxCell>
                <mxCell id="48" value="InfoBlock" style="text;html=1;strokeColor=none;fillColor=none;align=left;verticalAlign=middle;whiteSpace=wrap;rounded=0;fontSize=24;strokeWidth=2;fontColor=#333333;" parent="1" vertex="1">
                    <mxGeometry x="360" y="152" width="50" height="20" as="geometry"/>
                </mxCell>
                <mxCell id="49" value="h2" style="text;html=1;strokeColor=none;fillColor=none;align=left;verticalAlign=middle;whiteSpace=wrap;rounded=0;fontSize=24;strokeWidth=2;fontColor=#333333;" parent="1" vertex="1">
                    <mxGeometry x="400" y="189" width="40" height="10" as="geometry"/>
                </mxCell>
                <mxCell id="50" value="p" style="text;html=1;strokeColor=none;fillColor=none;align=left;verticalAlign=middle;whiteSpace=wrap;rounded=0;fontSize=24;strokeWidth=2;fontColor=#333333;" parent="1" vertex="1">
                    <mxGeometry x="400" y="212" width="40" height="10" as="geometry"/>
                </mxCell>
                <mxCell id="53" style="edgeStyle=orthogonalEdgeStyle;rounded=0;html=1;entryX=0;entryY=0.5;entryDx=0;entryDy=0;endArrow=none;endFill=0;exitX=0.5;exitY=1;exitDx=0;exitDy=0;fontSize=24;strokeWidth=2;fontColor=#333333;strokeColor=#333333;" parent="1" source="55" target="56" edge="1">
                    <mxGeometry relative="1" as="geometry"/>
                </mxCell>
                <mxCell id="55" value="NotInstagramLogo" style="text;html=1;strokeColor=none;fillColor=none;align=left;verticalAlign=middle;whiteSpace=wrap;rounded=0;fontSize=24;strokeWidth=2;fontColor=#333333;" parent="1" vertex="1">
                    <mxGeometry x="360" y="55" width="50" height="25" as="geometry"/>
                </mxCell>
                <mxCell id="56" value="h1" style="text;html=1;strokeColor=none;fillColor=none;align=left;verticalAlign=middle;whiteSpace=wrap;rounded=0;fontSize=24;strokeWidth=2;fontColor=#333333;" parent="1" vertex="1">
                    <mxGeometry x="425" y="93" width="40" height="10" as="geometry"/>
                </mxCell>
            </root>
        </mxGraphModel>
    </diagram>
</mxfile>